<?xml version="1.0" encoding="UTF-8" standalone="no"?>
<svg
   xmlns:dc="http://purl.org/dc/elements/1.1/"
   xmlns:cc="http://creativecommons.org/ns#"
   xmlns:rdf="http://www.w3.org/1999/02/22-rdf-syntax-ns#"
   xmlns:svg="http://www.w3.org/2000/svg"
   xmlns="http://www.w3.org/2000/svg"
   xmlns:sodipodi="http://sodipodi.sourceforge.net/DTD/sodipodi-0.dtd"
   xmlns:inkscape="http://www.inkscape.org/namespaces/inkscape"
   height="512pt"
   viewBox="0 0 512 512"
   width="512pt"
   version="1.1"
   id="svg4212"
   sodipodi:docname="customization.svg"
   inkscape:version="0.92.5 (2060ec1f9f, 2020-04-08)">
  <metadata
     id="metadata4218">
    <rdf:RDF>
      <cc:Work
         rdf:about="">
        <dc:format>image/svg+xml</dc:format>
        <dc:type
           rdf:resource="http://purl.org/dc/dcmitype/StillImage" />
      </cc:Work>
    </rdf:RDF>
  </metadata>
  <defs
     id="defs4216" />
  <sodipodi:namedview
     pagecolor="#ffffff"
     bordercolor="#666666"
     borderopacity="1"
     objecttolerance="10"
     gridtolerance="10"
     guidetolerance="10"
     inkscape:pageopacity="0"
     inkscape:pageshadow="2"
     inkscape:window-width="1542"
     inkscape:window-height="836"
     id="namedview4214"
     showgrid="false"
     inkscape:zoom="0.69140625"
     inkscape:cx="400.71667"
     inkscape:cy="367.16771"
     inkscape:window-x="58"
     inkscape:window-y="27"
     inkscape:window-maximized="1"
     inkscape:current-layer="svg4212" />
  <g
     id="g3801">
    <path
       style="stroke-width:0.46649617"
       inkscape:connector-curvature="0"
       id="path4208"
       d="M 115.39818,85.363645 4.654535,196.10729 c -4.75971877,4.75972 -4.75971877,12.4733 0,17.23302 4.7597184,4.75972 12.473306,4.75972 17.233024,0 L 132.6312,102.59667 127.95531,90.039535 Z m 0,0" />
    <path
       style="stroke-width:0.46649617"
       inkscape:connector-curvature="0"
       id="path4210"
       d="M 217.3531,75.853315 201.16605,50.780971 c -1.11522,-1.736605 -1.45233,-3.866815 -0.91659,-5.86218 l 7.66985,-28.582002 c 1.02046,-3.804859 -2.46186,-7.2871807 -6.26672,-6.264898 l -28.57836,7.673498 c -1.99354,0.535742 -4.12557,0.198625 -5.86035,-0.916593 L 142.13971,0.64174426 c -3.31832,-2.14114496 -7.70994,0.125736 -7.88306,4.07273004 l -1.30473,29.4876597 c -0.0929,2.102878 -1.08242,4.058153 -2.72062,5.379285 l -23.31023,18.758249 c -3.09054,2.487372 -2.29603,7.392867 1.42135,8.777778 l 18.43207,6.869879 c 14.54338,5.41573 11.82276,2.70423 17.23303,17.23303 l 6.86988,18.432075 c 1.38491,3.71739 6.29041,4.51189 8.77778,1.42136 l 18.75825,-23.310235 c 1.32113,-1.63821 3.27641,-2.62769 5.37928,-2.72062 l 29.48766,-1.30474 c 3.947,-0.17494 6.21388,-4.56473 4.07273,-7.88488 z m 0,0" />
    <g
       transform="matrix(0.89588637,0,0,0.89588637,97.415852,95.246372)"
       id="g4053">
      <path
         inkscape:connector-curvature="0"
         id="path3995"
         d="M 395.196,67.805 C 351.471,24.08 293.336,0 231.5,0 169.664,0 111.53,24.08 67.805,67.805 24.08,111.529 0,169.664 0,231.5 0,293.336 24.08,351.471 67.805,395.195 111.53,438.92 169.665,463 231.5,463 293.335,463 351.471,438.92 395.195,395.195 438.92,351.471 463,293.336 463,231.5 463,169.664 438.92,111.529 395.196,67.805 Z M 384.589,384.589 C 343.698,425.48 289.33,448 231.5,448 173.67,448 119.303,425.48 78.411,384.588 37.519,343.696 15,289.329 15,231.5 15,173.671 37.52,119.303 78.412,78.411 119.303,37.52 173.671,15 231.5,15 289.329,15 343.697,37.52 384.589,78.411 425.48,119.303 448,173.671 448,231.5 c 0,57.829 -22.52,112.197 -63.411,153.089 z" />
      <path
         inkscape:connector-curvature="0"
         id="path3997"
         d="m 424.133,207.437 c -2.12,-4.688 -4.122,-9.117 -4.944,-13.271 -0.868,-4.389 -0.714,-9.382 -0.551,-14.668 0.25,-8.081 0.508,-16.437 -2.779,-24.363 -3.352,-8.083 -9.507,-13.848 -15.459,-19.422 -3.799,-3.558 -7.388,-6.919 -9.796,-10.516 -2.446,-3.654 -4.203,-8.292 -6.062,-13.201 -2.874,-7.588 -5.846,-15.434 -11.97,-21.559 -6.124,-6.124 -13.969,-9.096 -21.557,-11.971 -4.91,-1.86 -9.547,-3.617 -13.201,-6.063 -3.598,-2.409 -6.959,-5.998 -10.518,-9.798 -5.575,-5.953 -11.339,-12.108 -19.423,-15.46 -7.928,-3.288 -16.285,-3.03 -24.367,-2.781 -5.286,0.164 -10.28,0.318 -14.67,-0.551 -4.154,-0.822 -8.583,-2.824 -13.271,-4.944 C 248.445,35.649 240.375,32 231.5,32 c -8.875,0 -16.944,3.648 -24.064,6.868 -4.688,2.12 -9.117,4.122 -13.271,4.944 -4.389,0.868 -9.382,0.714 -14.668,0.551 -8.082,-0.25 -16.437,-0.507 -24.364,2.779 -8.083,3.352 -13.848,9.507 -19.422,15.459 -3.558,3.799 -6.919,7.388 -10.516,9.796 -3.654,2.446 -8.292,4.203 -13.201,6.062 -7.588,2.874 -15.435,5.846 -21.559,11.97 -6.124,6.124 -9.096,13.969 -11.971,21.557 -1.86,4.91 -3.617,9.547 -6.063,13.201 -2.409,3.598 -5.998,6.959 -9.798,10.518 -5.953,5.575 -12.108,11.339 -15.46,19.423 -3.288,7.928 -3.031,16.285 -2.781,24.367 0.163,5.287 0.317,10.28 -0.552,14.67 -0.822,4.154 -2.824,8.583 -4.944,13.271 C 35.649,214.555 32,222.625 32,231.5 c 0,8.875 3.648,16.944 6.868,24.064 2.12,4.688 4.122,9.117 4.944,13.271 0.868,4.389 0.714,9.383 0.551,14.669 -0.25,8.081 -0.507,16.437 2.779,24.363 3.352,8.083 9.507,13.848 15.458,19.422 3.8,3.558 7.388,6.919 9.796,10.516 2.446,3.654 4.203,8.292 6.063,13.202 2.874,7.588 5.846,15.434 11.969,21.558 6.123,6.124 13.97,9.096 21.557,11.971 4.91,1.86 9.547,3.617 13.201,6.063 3.598,2.409 6.958,5.998 10.517,9.797 5.575,5.953 11.339,12.108 19.423,15.46 7.927,3.288 16.284,3.031 24.367,2.781 5.287,-0.163 10.28,-0.317 14.671,0.552 4.154,0.822 8.582,2.824 13.271,4.944 7.121,3.219 15.191,6.868 24.066,6.868 8.874,0 16.943,-3.648 24.063,-6.868 4.688,-2.12 9.117,-4.122 13.271,-4.944 4.39,-0.868 9.383,-0.714 14.668,-0.551 8.083,0.25 16.437,0.508 24.363,-2.779 8.083,-3.352 13.848,-9.507 19.422,-15.458 3.558,-3.8 6.919,-7.388 10.516,-9.796 3.654,-2.446 8.292,-4.203 13.202,-6.063 7.588,-2.874 15.434,-5.846 21.558,-11.969 6.124,-6.124 9.096,-13.97 11.971,-21.557 1.86,-4.91 3.617,-9.547 6.063,-13.201 2.409,-3.598 5.998,-6.958 9.797,-10.517 5.953,-5.574 12.108,-11.339 15.461,-19.423 3.288,-7.928 3.03,-16.285 2.781,-24.367 -0.163,-5.287 -0.317,-10.281 0.551,-14.67 0.822,-4.154 2.824,-8.582 4.944,-13.271 3.219,-7.121 6.868,-15.191 6.868,-24.066 0,-8.875 -3.648,-16.944 -6.867,-24.064 z m -13.669,41.949 c -2.376,5.256 -4.833,10.69 -5.991,16.54 -1.199,6.061 -1.011,12.152 -0.83,18.043 0.209,6.794 0.407,13.212 -1.644,18.159 -2.113,5.094 -6.847,9.527 -11.858,14.221 -4.25,3.979 -8.644,8.094 -12.008,13.12 -3.402,5.08 -5.549,10.75 -7.626,16.232 -2.419,6.387 -4.705,12.42 -8.55,16.264 -3.845,3.845 -9.877,6.13 -16.265,8.549 -5.483,2.077 -11.152,4.224 -16.233,7.625 -5.026,3.365 -9.141,7.758 -13.12,12.008 -4.693,5.011 -9.125,9.744 -14.218,11.855 -4.945,2.051 -11.361,1.854 -18.155,1.643 -5.89,-0.182 -11.982,-0.37 -18.043,0.829 -5.849,1.157 -11.284,3.614 -16.54,5.991 -6.295,2.847 -12.242,5.535 -17.883,5.535 -5.642,0 -11.589,-2.689 -17.886,-5.536 -5.256,-2.376 -10.69,-4.833 -16.539,-5.991 -3.846,-0.761 -7.703,-0.963 -11.515,-0.963 -2.195,0 -4.376,0.067 -6.529,0.134 -6.797,0.209 -13.213,0.407 -18.159,-1.644 -5.094,-2.113 -9.527,-6.847 -14.221,-11.858 -3.979,-4.249 -8.094,-8.643 -13.12,-12.008 -5.08,-3.401 -10.75,-5.549 -16.232,-7.626 -6.387,-2.419 -12.42,-4.705 -16.264,-8.55 -3.845,-3.845 -6.13,-9.877 -8.549,-16.265 -2.077,-5.483 -4.224,-11.152 -7.625,-16.233 -3.365,-5.026 -7.758,-9.141 -12.008,-13.12 -5.011,-4.693 -9.744,-9.125 -11.855,-14.219 -2.051,-4.945 -1.853,-11.361 -1.643,-18.154 0.182,-5.891 0.37,-11.983 -0.829,-18.043 -1.157,-5.849 -3.614,-11.283 -5.991,-16.54 C 49.689,243.088 47,237.141 47,231.5 c 0,-5.641 2.689,-11.589 5.536,-17.885 2.376,-5.256 4.834,-10.691 5.991,-16.54 1.199,-6.061 1.011,-12.152 0.83,-18.043 -0.209,-6.795 -0.407,-13.212 1.644,-18.159 2.113,-5.094 6.846,-9.527 11.858,-14.221 4.25,-3.979 8.644,-8.094 12.008,-13.12 3.402,-5.081 5.549,-10.75 7.626,-16.233 2.419,-6.387 4.705,-12.419 8.55,-16.264 3.845,-3.845 9.878,-6.129 16.265,-8.549 5.482,-2.076 11.152,-4.224 16.232,-7.625 5.026,-3.365 9.141,-7.758 13.12,-12.007 4.693,-5.011 9.125,-9.744 14.219,-11.856 4.946,-2.05 11.362,-1.851 18.155,-1.643 5.89,0.183 11.982,0.37 18.043,-0.829 5.849,-1.157 11.283,-3.614 16.54,-5.991 C 219.913,49.689 225.859,47 231.5,47 c 5.641,0 11.589,2.689 17.885,5.536 5.256,2.376 10.691,4.834 16.54,5.991 6.06,1.199 12.15,1.011 18.043,0.83 6.795,-0.21 13.212,-0.408 18.159,1.644 5.094,2.113 9.527,6.847 14.22,11.858 3.979,4.25 8.095,8.644 13.121,12.009 5.081,3.402 10.75,5.549 16.233,7.626 6.387,2.419 12.419,4.705 16.264,8.55 3.845,3.845 6.129,9.878 8.549,16.265 2.076,5.482 4.224,11.152 7.625,16.232 3.365,5.026 7.758,9.141 12.007,13.12 5.011,4.693 9.744,9.125 11.856,14.219 2.05,4.945 1.852,11.361 1.643,18.155 -0.182,5.891 -0.37,11.982 0.829,18.042 1.157,5.849 3.614,11.284 5.991,16.54 2.846,6.296 5.535,12.243 5.535,17.883 0,5.642 -2.688,11.589 -5.536,17.886 z" />
      <path
         inkscape:connector-curvature="0"
         id="path3999"
         d="m 183.5,167 c 17.369,0 31.5,-14.131 31.5,-31.5 0,-17.369 -14.13,-31.5 -31.5,-31.5 -17.37,0 -31.5,14.131 -31.5,31.5 0,17.369 14.131,31.5 31.5,31.5 z m 0,-48 c 9.098,0 16.5,7.402 16.5,16.5 0,9.098 -7.402,16.5 -16.5,16.5 -9.098,0 -16.5,-7.402 -16.5,-16.5 0,-9.098 7.402,-16.5 16.5,-16.5 z" />
      <path
         inkscape:connector-curvature="0"
         id="path4001"
         d="m 351,191.5 c 0,-17.369 -14.131,-31.5 -31.5,-31.5 -17.369,0 -31.5,14.131 -31.5,31.5 0,17.369 14.131,31.5 31.5,31.5 17.369,0 31.5,-14.131 31.5,-31.5 z M 319.5,208 c -9.098,0 -16.5,-7.402 -16.5,-16.5 0,-9.098 7.402,-16.5 16.5,-16.5 9.098,0 16.5,7.402 16.5,16.5 0,9.098 -7.401,16.5 -16.5,16.5 z" />
      <path
         inkscape:connector-curvature="0"
         id="path4003"
         d="m 271.5,304 c -17.369,0 -31.5,14.131 -31.5,31.5 0,17.369 14.131,31.5 31.5,31.5 17.369,0 31.5,-14.13 31.5,-31.5 0,-17.369 -14.13,-31.5 -31.5,-31.5 z m 0,48 c -9.098,0 -16.5,-7.402 -16.5,-16.5 0,-9.098 7.402,-16.5 16.5,-16.5 9.098,0 16.5,7.402 16.5,16.5 0,9.098 -7.401,16.5 -16.5,16.5 z" />
      <path
         inkscape:connector-curvature="0"
         id="path4005"
         d="m 183,263.5 c 0,-17.369 -14.131,-31.5 -31.5,-31.5 -17.37,0 -31.5,14.131 -31.5,31.5 0,17.369 14.131,31.5 31.5,31.5 17.37,0 31.5,-14.131 31.5,-31.5 z M 151.5,280 c -9.099,0 -16.5,-7.402 -16.5,-16.5 0,-9.098 7.402,-16.5 16.5,-16.5 9.098,0 16.5,7.402 16.5,16.5 0,9.098 -7.401,16.5 -16.5,16.5 z" />
      <path
         inkscape:connector-curvature="0"
         id="path4007"
         d="m 263,247.5 c 0,-12.958 -10.542,-23.5 -23.5,-23.5 -12.958,0 -23.5,10.542 -23.5,23.5 0,12.958 10.542,23.5 23.5,23.5 12.958,0 23.5,-10.542 23.5,-23.5 z m -23.5,8.5 c -4.687,0 -8.5,-3.813 -8.5,-8.5 0,-4.687 3.813,-8.5 8.5,-8.5 4.687,0 8.5,3.813 8.5,8.5 0,4.687 -3.812,8.5 -8.5,8.5 z" />
      <path
         inkscape:connector-curvature="0"
         id="path4009"
         d="M 271.5,143 C 284.458,143 295,132.458 295,119.5 295,106.542 284.458,96 271.5,96 258.542,96 248,106.542 248,119.5 c 0,12.958 10.542,23.5 23.5,23.5 z m 0,-32 c 4.687,0 8.5,3.813 8.5,8.5 0,4.687 -3.813,8.5 -8.5,8.5 -4.687,0 -8.5,-3.813 -8.5,-8.5 0,-4.687 3.813,-8.5 8.5,-8.5 z" />
      <path
         inkscape:connector-curvature="0"
         id="path4011"
         d="m 343.5,248 c -12.958,0 -23.5,10.542 -23.5,23.5 0,12.958 10.542,23.5 23.5,23.5 12.958,0 23.5,-10.542 23.5,-23.5 0,-12.958 -10.542,-23.5 -23.5,-23.5 z m 0,32 c -4.687,0 -8.5,-3.813 -8.5,-8.5 0,-4.687 3.813,-8.5 8.5,-8.5 4.687,0 8.5,3.813 8.5,8.5 0,4.687 -3.812,8.5 -8.5,8.5 z" />
      <path
         inkscape:connector-curvature="0"
         id="path4013"
         d="m 183.5,320 c -12.958,0 -23.5,10.542 -23.5,23.5 0,12.958 10.542,23.5 23.5,23.5 12.958,0 23.5,-10.542 23.5,-23.5 0,-12.958 -10.542,-23.5 -23.5,-23.5 z m 0,32 c -4.687,0 -8.5,-3.813 -8.5,-8.5 0,-4.687 3.813,-8.5 8.5,-8.5 4.687,0 8.5,3.813 8.5,8.5 0,4.687 -3.812,8.5 -8.5,8.5 z" />
      <path
         inkscape:connector-curvature="0"
         id="path4015"
         d="M 119.5,207 C 132.458,207 143,196.458 143,183.5 143,170.542 132.458,160 119.5,160 106.542,160 96,170.542 96,183.5 c 0,12.958 10.542,23.5 23.5,23.5 z m 0,-32 c 4.687,0 8.5,3.813 8.5,8.5 0,4.687 -3.813,8.5 -8.5,8.5 -4.687,0 -8.5,-3.813 -8.5,-8.5 0,-4.687 3.813,-8.5 8.5,-8.5 z" />
      <path
         inkscape:connector-curvature="0"
         id="path4017"
         d="m 202.854,184.792 c -3.703,-1.852 -8.209,-0.351 -10.062,3.354 -1.853,3.705 -0.351,8.21 3.354,10.062 l 16,8 c 1.077,0.539 2.221,0.793 3.348,0.793 2.751,0 5.4,-1.52 6.714,-4.147 1.853,-3.705 0.351,-8.21 -3.354,-10.062 z" />
      <path
         inkscape:connector-curvature="0"
         id="path4019"
         d="m 247.5,183 c 1.919,0 3.839,-0.732 5.303,-2.197 l 8,-8 c 2.929,-2.929 2.929,-7.678 0,-10.606 -2.929,-2.929 -7.678,-2.929 -10.606,0 l -8,8 c -2.929,2.929 -2.929,7.678 0,10.606 1.465,1.465 3.384,2.197 5.303,2.197 z" />
      <path
         inkscape:connector-curvature="0"
         id="path4021"
         d="m 220.804,290.197 -8,-8 c -2.929,-2.929 -7.678,-2.929 -10.606,0 -2.929,2.929 -2.929,7.678 0,10.606 l 8,8 c 1.464,1.464 3.384,2.197 5.303,2.197 1.919,0 3.839,-0.732 5.303,-2.197 2.929,-2.928 2.929,-7.678 0,-10.606 z" />
      <path
         inkscape:connector-curvature="0"
         id="path4023"
         d="m 292.804,250.197 c -2.929,-2.929 -7.678,-2.929 -10.606,0 -2.929,2.929 -2.929,7.678 0,10.606 l 8,8 c 1.464,1.464 3.384,2.197 5.303,2.197 1.919,0 3.839,-0.732 5.303,-2.197 2.929,-2.929 2.929,-7.678 0,-10.606 z" />
      <path
         inkscape:connector-curvature="0"
         id="path4025"
         d="m 380.146,208.792 -16,8 c -3.705,1.852 -5.207,6.357 -3.354,10.062 1.314,2.628 3.962,4.147 6.714,4.147 1.127,0 2.271,-0.255 3.348,-0.793 l 16,-8 c 3.705,-1.852 5.207,-6.357 3.354,-10.062 -1.852,-3.705 -6.356,-5.208 -10.062,-3.354 z" />
      <path
         inkscape:connector-curvature="0"
         id="path4027"
         d="m 100.803,234.197 c -2.929,-2.929 -7.678,-2.929 -10.606,0 l -8,8 c -2.929,2.929 -2.929,7.678 0,10.606 1.464,1.465 3.384,2.197 5.303,2.197 1.919,0 3.839,-0.732 5.303,-2.197 l 8,-8 c 2.929,-2.928 2.929,-7.678 0,-10.606 z" />
      <path
         inkscape:connector-curvature="0"
         id="path4029"
         d="m 218.197,92.803 c 1.465,1.465 3.384,2.197 5.303,2.197 1.919,0 3.839,-0.732 5.303,-2.197 2.929,-2.929 2.929,-7.678 0,-10.606 l -8,-8 c -2.929,-2.929 -7.678,-2.929 -10.606,0 -2.929,2.929 -2.929,7.678 0,10.606 z" />
      <path
         inkscape:connector-curvature="0"
         id="path4031"
         d="m 223.5,360 c -4.142,0 -7.5,3.358 -7.5,7.5 v 8 c 0,4.142 3.358,7.5 7.5,7.5 4.142,0 7.5,-3.358 7.5,-7.5 v -8 c 0,-4.142 -3.357,-7.5 -7.5,-7.5 z" />
      <path
         inkscape:connector-curvature="0"
         id="path4033"
         d="m 330.197,314.197 -8,8 c -2.929,2.929 -2.929,7.678 0,10.606 1.464,1.464 3.384,2.197 5.303,2.197 1.919,0 3.839,-0.732 5.303,-2.197 l 8,-8 c 2.929,-2.929 2.929,-7.678 0,-10.606 -2.928,-2.928 -7.677,-2.928 -10.606,0 z" />
      <path
         inkscape:connector-curvature="0"
         id="path4035"
         d="m 124.803,314.197 c -2.929,-2.929 -7.678,-2.929 -10.606,0 -2.929,2.929 -2.929,7.678 0,10.606 l 8,8 c 1.464,1.464 3.384,2.197 5.303,2.197 1.919,0 3.839,-0.732 5.303,-2.197 2.929,-2.929 2.929,-7.678 0,-10.606 z" />
      <path
         inkscape:connector-curvature="0"
         id="path4037"
         d="m 322.197,124.803 c 1.464,1.464 3.384,2.197 5.303,2.197 1.919,0 3.839,-0.732 5.303,-2.197 2.929,-2.929 2.929,-7.678 0,-10.606 l -8,-8 c -2.929,-2.929 -7.678,-2.929 -10.606,0 -2.929,2.929 -2.929,7.678 0,10.606 z" />
      <path
         inkscape:connector-curvature="0"
         id="path4039"
         d="m 351.5,159 c 1.97,0 3.91,-0.8 5.3,-2.2 1.4,-1.39 2.2,-3.33 2.2,-5.3 0,-1.97 -0.8,-3.91 -2.2,-5.3 -1.39,-1.4 -3.33,-2.2 -5.3,-2.2 -1.97,0 -3.91,0.8 -5.3,2.2 -1.4,1.39 -2.2,3.33 -2.2,5.3 0,1.97 0.8,3.91 2.2,5.3 1.39,1.4 3.33,2.2 5.3,2.2 z" />
      <path
         inkscape:connector-curvature="0"
         id="path4041"
         d="m 258.2,202.2 c -1.4,1.39 -2.2,3.33 -2.2,5.3 0,1.97 0.8,3.91 2.2,5.3 1.39,1.4 3.33,2.2 5.3,2.2 1.97,0 3.91,-0.8 5.3,-2.2 1.4,-1.39 2.2,-3.33 2.2,-5.3 0,-1.97 -0.8,-3.91 -2.2,-5.3 -1.39,-1.4 -3.33,-2.2 -5.3,-2.2 -1.97,0 -3.91,0.8 -5.3,2.2 z" />
      <path
         inkscape:connector-curvature="0"
         id="path4043"
         d="m 162.2,210.2 c -1.4,1.39 -2.2,3.32 -2.2,5.3 0,1.98 0.8,3.91 2.2,5.3 1.39,1.4 3.33,2.2 5.3,2.2 1.97,0 3.91,-0.8 5.3,-2.2 1.4,-1.39 2.2,-3.33 2.2,-5.3 0,-1.97 -0.8,-3.91 -2.2,-5.3 -1.39,-1.4 -3.32,-2.2 -5.3,-2.2 -1.98,0 -3.91,0.8 -5.3,2.2 z" />
      <path
         inkscape:connector-curvature="0"
         id="path4045"
         d="m 127.5,135 c 1.97,0 3.91,-0.8 5.3,-2.2 1.4,-1.39 2.2,-3.33 2.2,-5.3 0,-1.98 -0.8,-3.91 -2.2,-5.3 -1.39,-1.4 -3.33,-2.2 -5.3,-2.2 -1.98,0 -3.91,0.8 -5.3,2.2 -1.4,1.39 -2.2,3.32 -2.2,5.3 0,1.97 0.8,3.91 2.2,5.3 1.39,1.4 3.33,2.2 5.3,2.2 z" />
      <path
         inkscape:connector-curvature="0"
         id="path4047"
         d="m 250.2,282.2 c -1.4,1.39 -2.2,3.33 -2.2,5.3 0,1.97 0.8,3.91 2.2,5.3 1.39,1.4 3.33,2.2 5.3,2.2 1.98,0 3.91,-0.8 5.3,-2.2 1.4,-1.39 2.2,-3.33 2.2,-5.3 0,-1.97 -0.8,-3.91 -2.2,-5.3 -1.39,-1.4 -3.32,-2.2 -5.3,-2.2 -1.97,0 -3.91,0.8 -5.3,2.2 z" />
      <path
         inkscape:connector-curvature="0"
         id="path4049"
         d="m 255.5,376 c -1.97,0 -3.91,0.8 -5.3,2.2 -1.4,1.39 -2.2,3.33 -2.2,5.3 0,1.98 0.8,3.91 2.2,5.3 1.39,1.4 3.32,2.2 5.3,2.2 1.98,0 3.91,-0.8 5.3,-2.2 1.4,-1.39 2.2,-3.32 2.2,-5.3 0,-1.97 -0.8,-3.91 -2.2,-5.3 -1.39,-1.4 -3.32,-2.2 -5.3,-2.2 z" />
      <path
         inkscape:connector-curvature="0"
         id="path4051"
         d="m 103.5,272 c -1.97,0 -3.91,0.8 -5.3,2.2 -1.4,1.39 -2.2,3.33 -2.2,5.3 0,1.97 0.8,3.91 2.2,5.3 1.39,1.4 3.33,2.2 5.3,2.2 1.97,0 3.91,-0.8 5.3,-2.2 1.4,-1.39 2.2,-3.33 2.2,-5.3 0,-1.97 -0.8,-3.91 -2.2,-5.3 -1.39,-1.4 -3.33,-2.2 -5.3,-2.2 z" />
    </g>
  </g>
</svg>
