<svg xmlns="http://www.w3.org/2000/svg" height="512" viewBox="0 0 512 512" width="512"><style>.a{stroke-width:0.5;}</style><path d="M115.4 85.4 4.7 196.1c-4.8 4.8-4.8 12.5 0 17.2 4.8 4.8 12.5 4.8 17.2 0L132.6 102.6 128 90Zm0 0" class="a"/><path d="M217.4 75.9 201.2 50.8c-1.1-1.7-1.5-3.9-0.9-5.9l7.7-28.6c1-3.8-2.5-7.3-6.3-6.3l-28.6 7.7c-2 0.5-4.1 0.2-5.9-0.9L142.1 0.6c-3.3-2.1-7.7 0.1-7.9 4.1l-1.3 29.5c-0.1 2.1-1.1 4.1-2.7 5.4l-23.3 18.8c-3.1 2.5-2.3 7.4 1.4 8.8l18.4 6.9c14.5 5.4 11.8 2.7 17.2 17.2l6.9 18.4c1.4 3.7 6.3 4.5 8.8 1.4l18.8-23.3c1.3-1.6 3.3-2.6 5.4-2.7l29.5-1.3c3.9-0.2 6.2-4.6 4.1-7.9zm0 0" class="a"/><g transform="matrix(0.89588637 0 0 0.89588637 97.415852 95.246372)"><path d="M395.2 67.8C351.5 24.1 293.3 0 231.5 0 169.7 0 111.5 24.1 67.8 67.8 24.1 111.5 0 169.7 0 231.5 0 293.3 24.1 351.5 67.8 395.2 111.5 438.9 169.7 463 231.5 463 293.3 463 351.5 438.9 395.2 395.2 438.9 351.5 463 293.3 463 231.5 463 169.7 438.9 111.5 395.2 67.8ZM384.6 384.6C343.7 425.5 289.3 448 231.5 448 173.7 448 119.3 425.5 78.4 384.6 37.5 343.7 15 289.3 15 231.5 15 173.7 37.5 119.3 78.4 78.4 119.3 37.5 173.7 15 231.5 15 289.3 15 343.7 37.5 384.6 78.4 425.5 119.3 448 173.7 448 231.5c0 57.8-22.5 112.2-63.4 153.1z"/><path d="m424.1 207.4c-2.1-4.7-4.1-9.1-4.9-13.3-0.9-4.4-0.7-9.4-0.6-14.7 0.3-8.1 0.5-16.4-2.8-24.4-3.4-8.1-9.5-13.8-15.5-19.4-3.8-3.6-7.4-6.9-9.8-10.5-2.4-3.7-4.2-8.3-6.1-13.2-2.9-7.6-5.8-15.4-12-21.6-6.1-6.1-14-9.1-21.6-12-4.9-1.9-9.5-3.6-13.2-6.1-3.6-2.4-7-6-10.5-9.8-5.6-6-11.3-12.1-19.4-15.5-7.9-3.3-16.3-3-24.4-2.8-5.3 0.2-10.3 0.3-14.7-0.6-4.2-0.8-8.6-2.8-13.3-4.9C248.4 35.6 240.4 32 231.5 32c-8.9 0-16.9 3.6-24.1 6.9-4.7 2.1-9.1 4.1-13.3 4.9-4.4 0.9-9.4 0.7-14.7 0.6-8.1-0.2-16.4-0.5-24.4 2.8-8.1 3.4-13.8 9.5-19.4 15.5-3.6 3.8-6.9 7.4-10.5 9.8-3.7 2.4-8.3 4.2-13.2 6.1-7.6 2.9-15.4 5.8-21.6 12-6.1 6.1-9.1 14-12 21.6-1.9 4.9-3.6 9.5-6.1 13.2-2.4 3.6-6 7-9.8 10.5-6 5.6-12.1 11.3-15.5 19.4-3.3 7.9-3 16.3-2.8 24.4 0.2 5.3 0.3 10.3-0.6 14.7-0.8 4.2-2.8 8.6-4.9 13.3C35.6 214.6 32 222.6 32 231.5c0 8.9 3.6 16.9 6.9 24.1 2.1 4.7 4.1 9.1 4.9 13.3 0.9 4.4 0.7 9.4 0.6 14.7-0.2 8.1-0.5 16.4 2.8 24.4 3.4 8.1 9.5 13.8 15.5 19.4 3.8 3.6 7.4 6.9 9.8 10.5 2.4 3.7 4.2 8.3 6.1 13.2 2.9 7.6 5.8 15.4 12 21.6 6.1 6.1 14 9.1 21.6 12 4.9 1.9 9.5 3.6 13.2 6.1 3.6 2.4 7 6 10.5 9.8 5.6 6 11.3 12.1 19.4 15.5 7.9 3.3 16.3 3 24.4 2.8 5.3-0.2 10.3-0.3 14.7 0.6 4.2 0.8 8.6 2.8 13.3 4.9 7.1 3.2 15.2 6.9 24.1 6.9 8.9 0 16.9-3.6 24.1-6.9 4.7-2.1 9.1-4.1 13.3-4.9 4.4-0.9 9.4-0.7 14.7-0.6 8.1 0.3 16.4 0.5 24.4-2.8 8.1-3.4 13.8-9.5 19.4-15.5 3.6-3.8 6.9-7.4 10.5-9.8 3.7-2.4 8.3-4.2 13.2-6.1 7.6-2.9 15.4-5.8 21.6-12 6.1-6.1 9.1-14 12-21.6 1.9-4.9 3.6-9.5 6.1-13.2 2.4-3.6 6-7 9.8-10.5 6-5.6 12.1-11.3 15.5-19.4 3.3-7.9 3-16.3 2.8-24.4-0.2-5.3-0.3-10.3 0.6-14.7 0.8-4.2 2.8-8.6 4.9-13.3 3.2-7.1 6.9-15.2 6.9-24.1 0-8.9-3.6-16.9-6.9-24.1zm-13.7 41.9c-2.4 5.3-4.8 10.7-6 16.5-1.2 6.1-1 12.2-0.8 18 0.2 6.8 0.4 13.2-1.6 18.2-2.1 5.1-6.8 9.5-11.9 14.2-4.2 4-8.6 8.1-12 13.1-3.4 5.1-5.5 10.8-7.6 16.2-2.4 6.4-4.7 12.4-8.5 16.3-3.8 3.8-9.9 6.1-16.3 8.5-5.5 2.1-11.2 4.2-16.2 7.6-5 3.4-9.1 7.8-13.1 12-4.7 5-9.1 9.7-14.2 11.9-4.9 2.1-11.4 1.9-18.2 1.6-5.9-0.2-12-0.4-18 0.8-5.8 1.2-11.3 3.6-16.5 6-6.3 2.8-12.2 5.5-17.9 5.5-5.6 0-11.6-2.7-17.9-5.5-5.3-2.4-10.7-4.8-16.5-6-3.8-0.8-7.7-1-11.5-1-2.2 0-4.4 0.1-6.5 0.1-6.8 0.2-13.2 0.4-18.2-1.6-5.1-2.1-9.5-6.8-14.2-11.9-4-4.2-8.1-8.6-13.1-12-5.1-3.4-10.7-5.5-16.2-7.6-6.4-2.4-12.4-4.7-16.3-8.5-3.8-3.8-6.1-9.9-8.5-16.3-2.1-5.5-4.2-11.2-7.6-16.2-3.4-5-7.8-9.1-12-13.1-5-4.7-9.7-9.1-11.9-14.2-2.1-4.9-1.9-11.4-1.6-18.2 0.2-5.9 0.4-12-0.8-18-1.2-5.8-3.6-11.3-6-16.5C49.7 243.1 47 237.1 47 231.5c0-5.6 2.7-11.6 5.5-17.9 2.4-5.3 4.8-10.7 6-16.5 1.2-6.1 1-12.2 0.8-18-0.2-6.8-0.4-13.2 1.6-18.2 2.1-5.1 6.8-9.5 11.9-14.2 4.3-4 8.6-8.1 12-13.1 3.4-5.1 5.5-10.7 7.6-16.2 2.4-6.4 4.7-12.4 8.6-16.3 3.8-3.8 9.9-6.1 16.3-8.5 5.5-2.1 11.2-4.2 16.2-7.6 5-3.4 9.1-7.8 13.1-12 4.7-5 9.1-9.7 14.2-11.9 4.9-2 11.4-1.9 18.2-1.6 5.9 0.2 12 0.4 18-0.8 5.8-1.2 11.3-3.6 16.5-6C219.9 49.7 225.9 47 231.5 47c5.6 0 11.6 2.7 17.9 5.5 5.3 2.4 10.7 4.8 16.5 6 6.1 1.2 12.2 1 18 0.8 6.8-0.2 13.2-0.4 18.2 1.6 5.1 2.1 9.5 6.8 14.2 11.9 4 4.3 8.1 8.6 13.1 12 5.1 3.4 10.8 5.5 16.2 7.6 6.4 2.4 12.4 4.7 16.3 8.6 3.8 3.8 6.1 9.9 8.5 16.3 2.1 5.5 4.2 11.2 7.6 16.2 3.4 5 7.8 9.1 12 13.1 5 4.7 9.7 9.1 11.9 14.2 2.1 4.9 1.9 11.4 1.6 18.2-0.2 5.9-0.4 12 0.8 18 1.2 5.8 3.6 11.3 6 16.5 2.8 6.3 5.5 12.2 5.5 17.9 0 5.6-2.7 11.6-5.5 17.9z"/><path d="m183.5 167c17.4 0 31.5-14.1 31.5-31.5 0-17.4-14.1-31.5-31.5-31.5-17.4 0-31.5 14.1-31.5 31.5 0 17.4 14.1 31.5 31.5 31.5zm0-48c9.1 0 16.5 7.4 16.5 16.5 0 9.1-7.4 16.5-16.5 16.5-9.1 0-16.5-7.4-16.5-16.5 0-9.1 7.4-16.5 16.5-16.5z"/><path d="m351 191.5c0-17.4-14.1-31.5-31.5-31.5-17.4 0-31.5 14.1-31.5 31.5 0 17.4 14.1 31.5 31.5 31.5 17.4 0 31.5-14.1 31.5-31.5zM319.5 208c-9.1 0-16.5-7.4-16.5-16.5 0-9.1 7.4-16.5 16.5-16.5 9.1 0 16.5 7.4 16.5 16.5 0 9.1-7.4 16.5-16.5 16.5z"/><path d="m271.5 304c-17.4 0-31.5 14.1-31.5 31.5 0 17.4 14.1 31.5 31.5 31.5 17.4 0 31.5-14.1 31.5-31.5 0-17.4-14.1-31.5-31.5-31.5zm0 48c-9.1 0-16.5-7.4-16.5-16.5 0-9.1 7.4-16.5 16.5-16.5 9.1 0 16.5 7.4 16.5 16.5 0 9.1-7.4 16.5-16.5 16.5z"/><path d="m183 263.5c0-17.4-14.1-31.5-31.5-31.5-17.4 0-31.5 14.1-31.5 31.5 0 17.4 14.1 31.5 31.5 31.5 17.4 0 31.5-14.1 31.5-31.5zM151.5 280c-9.1 0-16.5-7.4-16.5-16.5 0-9.1 7.4-16.5 16.5-16.5 9.1 0 16.5 7.4 16.5 16.5 0 9.1-7.4 16.5-16.5 16.5z"/><path d="m263 247.5c0-13-10.5-23.5-23.5-23.5-13 0-23.5 10.5-23.5 23.5 0 13 10.5 23.5 23.5 23.5 13 0 23.5-10.5 23.5-23.5zm-23.5 8.5c-4.7 0-8.5-3.8-8.5-8.5 0-4.7 3.8-8.5 8.5-8.5 4.7 0 8.5 3.8 8.5 8.5 0 4.7-3.8 8.5-8.5 8.5z"/><path d="M271.5 143C284.5 143 295 132.5 295 119.5 295 106.5 284.5 96 271.5 96 258.5 96 248 106.5 248 119.5c0 13 10.5 23.5 23.5 23.5zm0-32c4.7 0 8.5 3.8 8.5 8.5 0 4.7-3.8 8.5-8.5 8.5-4.7 0-8.5-3.8-8.5-8.5 0-4.7 3.8-8.5 8.5-8.5z"/><path d="m343.5 248c-13 0-23.5 10.5-23.5 23.5 0 13 10.5 23.5 23.5 23.5 13 0 23.5-10.5 23.5-23.5 0-13-10.5-23.5-23.5-23.5zm0 32c-4.7 0-8.5-3.8-8.5-8.5 0-4.7 3.8-8.5 8.5-8.5 4.7 0 8.5 3.8 8.5 8.5 0 4.7-3.8 8.5-8.5 8.5z"/><path d="m183.5 320c-13 0-23.5 10.5-23.5 23.5 0 13 10.5 23.5 23.5 23.5 13 0 23.5-10.5 23.5-23.5 0-13-10.5-23.5-23.5-23.5zm0 32c-4.7 0-8.5-3.8-8.5-8.5 0-4.7 3.8-8.5 8.5-8.5 4.7 0 8.5 3.8 8.5 8.5 0 4.7-3.8 8.5-8.5 8.5z"/><path d="M119.5 207C132.5 207 143 196.5 143 183.5 143 170.5 132.5 160 119.5 160 106.5 160 96 170.5 96 183.5c0 13 10.5 23.5 23.5 23.5zm0-32c4.7 0 8.5 3.8 8.5 8.5 0 4.7-3.8 8.5-8.5 8.5-4.7 0-8.5-3.8-8.5-8.5 0-4.7 3.8-8.5 8.5-8.5z"/><path d="m202.9 184.8c-3.7-1.9-8.2-0.4-10.1 3.4-1.9 3.7-0.4 8.2 3.4 10.1l16 8c1.1 0.5 2.2 0.8 3.3 0.8 2.8 0 5.4-1.5 6.7-4.1 1.9-3.7 0.4-8.2-3.4-10.1z"/><path d="m247.5 183c1.9 0 3.8-0.7 5.3-2.2l8-8c2.9-2.9 2.9-7.7 0-10.6-2.9-2.9-7.7-2.9-10.6 0l-8 8c-2.9 2.9-2.9 7.7 0 10.6 1.5 1.5 3.4 2.2 5.3 2.2z"/><path d="m220.8 290.2-8-8c-2.9-2.9-7.7-2.9-10.6 0-2.9 2.9-2.9 7.7 0 10.6l8 8c1.5 1.5 3.4 2.2 5.3 2.2 1.9 0 3.8-0.7 5.3-2.2 2.9-2.9 2.9-7.7 0-10.6z"/><path d="m292.8 250.2c-2.9-2.9-7.7-2.9-10.6 0-2.9 2.9-2.9 7.7 0 10.6l8 8c1.5 1.5 3.4 2.2 5.3 2.2 1.9 0 3.8-0.7 5.3-2.2 2.9-2.9 2.9-7.7 0-10.6z"/><path d="m380.1 208.8-16 8c-3.7 1.9-5.2 6.4-3.4 10.1 1.3 2.6 4 4.1 6.7 4.1 1.1 0 2.3-0.3 3.3-0.8l16-8c3.7-1.9 5.2-6.4 3.4-10.1-1.9-3.7-6.4-5.2-10.1-3.4z"/><path d="m100.8 234.2c-2.9-2.9-7.7-2.9-10.6 0l-8 8c-2.9 2.9-2.9 7.7 0 10.6 1.5 1.5 3.4 2.2 5.3 2.2 1.9 0 3.8-0.7 5.3-2.2l8-8c2.9-2.9 2.9-7.7 0-10.6z"/><path d="m218.2 92.8c1.5 1.5 3.4 2.2 5.3 2.2 1.9 0 3.8-0.7 5.3-2.2 2.9-2.9 2.9-7.7 0-10.6l-8-8c-2.9-2.9-7.7-2.9-10.6 0-2.9 2.9-2.9 7.7 0 10.6z"/><path d="m223.5 360c-4.1 0-7.5 3.4-7.5 7.5v8c0 4.1 3.4 7.5 7.5 7.5 4.1 0 7.5-3.4 7.5-7.5v-8c0-4.1-3.4-7.5-7.5-7.5z"/><path d="m330.2 314.2-8 8c-2.9 2.9-2.9 7.7 0 10.6 1.5 1.5 3.4 2.2 5.3 2.2 1.9 0 3.8-0.7 5.3-2.2l8-8c2.9-2.9 2.9-7.7 0-10.6-2.9-2.9-7.7-2.9-10.6 0z"/><path d="m124.8 314.2c-2.9-2.9-7.7-2.9-10.6 0-2.9 2.9-2.9 7.7 0 10.6l8 8c1.5 1.5 3.4 2.2 5.3 2.2 1.9 0 3.8-0.7 5.3-2.2 2.9-2.9 2.9-7.7 0-10.6z"/><path d="m322.2 124.8c1.5 1.5 3.4 2.2 5.3 2.2 1.9 0 3.8-0.7 5.3-2.2 2.9-2.9 2.9-7.7 0-10.6l-8-8c-2.9-2.9-7.7-2.9-10.6 0-2.9 2.9-2.9 7.7 0 10.6z"/><path d="m351.5 159c2 0 3.9-0.8 5.3-2.2 1.4-1.4 2.2-3.3 2.2-5.3 0-2-0.8-3.9-2.2-5.3-1.4-1.4-3.3-2.2-5.3-2.2-2 0-3.9 0.8-5.3 2.2-1.4 1.4-2.2 3.3-2.2 5.3 0 2 0.8 3.9 2.2 5.3 1.4 1.4 3.3 2.2 5.3 2.2z"/><path d="m258.2 202.2c-1.4 1.4-2.2 3.3-2.2 5.3 0 2 0.8 3.9 2.2 5.3 1.4 1.4 3.3 2.2 5.3 2.2 2 0 3.9-0.8 5.3-2.2 1.4-1.4 2.2-3.3 2.2-5.3 0-2-0.8-3.9-2.2-5.3-1.4-1.4-3.3-2.2-5.3-2.2-2 0-3.9 0.8-5.3 2.2z"/><path d="m162.2 210.2c-1.4 1.4-2.2 3.3-2.2 5.3 0 2 0.8 3.9 2.2 5.3 1.4 1.4 3.3 2.2 5.3 2.2 2 0 3.9-0.8 5.3-2.2 1.4-1.4 2.2-3.3 2.2-5.3 0-2-0.8-3.9-2.2-5.3-1.4-1.4-3.3-2.2-5.3-2.2-2 0-3.9 0.8-5.3 2.2z"/><path d="m127.5 135c2 0 3.9-0.8 5.3-2.2 1.4-1.4 2.2-3.3 2.2-5.3 0-2-0.8-3.9-2.2-5.3-1.4-1.4-3.3-2.2-5.3-2.2-2 0-3.9 0.8-5.3 2.2-1.4 1.4-2.2 3.3-2.2 5.3 0 2 0.8 3.9 2.2 5.3 1.4 1.4 3.3 2.2 5.3 2.2z"/><path d="m250.2 282.2c-1.4 1.4-2.2 3.3-2.2 5.3 0 2 0.8 3.9 2.2 5.3 1.4 1.4 3.3 2.2 5.3 2.2 2 0 3.9-0.8 5.3-2.2 1.4-1.4 2.2-3.3 2.2-5.3 0-2-0.8-3.9-2.2-5.3-1.4-1.4-3.3-2.2-5.3-2.2-2 0-3.9 0.8-5.3 2.2z"/><path d="m255.5 376c-2 0-3.9 0.8-5.3 2.2-1.4 1.4-2.2 3.3-2.2 5.3 0 2 0.8 3.9 2.2 5.3 1.4 1.4 3.3 2.2 5.3 2.2 2 0 3.9-0.8 5.3-2.2 1.4-1.4 2.2-3.3 2.2-5.3 0-2-0.8-3.9-2.2-5.3-1.4-1.4-3.3-2.2-5.3-2.2z"/><path d="m103.5 272c-2 0-3.9 0.8-5.3 2.2-1.4 1.4-2.2 3.3-2.2 5.3 0 2 0.8 3.9 2.2 5.3 1.4 1.4 3.3 2.2 5.3 2.2 2 0 3.9-0.8 5.3-2.2 1.4-1.4 2.2-3.3 2.2-5.3 0-2-0.8-3.9-2.2-5.3-1.4-1.4-3.3-2.2-5.3-2.2z"/></g></svg>