<svg id="Capa_1" enable-background="new 0 0 512 512" height="512" viewBox="0 0 512 512" width="512" xmlns="http://www.w3.org/2000/svg"><g id="XMLID_460_"><path id="XMLID_22_" d="m299.687 259c31.602 0 57.313-25.585 57.313-57.034s-25.711-57.034-57.313-57.034c-31.604 0-57.314 25.585-57.314 57.034s25.71 57.034 57.314 57.034zm0-84.068c15.061 0 27.313 12.127 27.313 27.034s-12.253 27.034-27.313 27.034c-15.062 0-27.314-12.127-27.314-27.034s12.252-27.034 27.314-27.034z"/><path id="XMLID_21_" d="m508.95 73.234c-4.465-13.264-14.394-24.053-27.24-29.601-66.101-28.545-144.15-43.633-225.71-43.633s-159.608 15.088-225.711 43.633c-12.845 5.548-22.774 16.337-27.239 29.6-4.474 13.291-3.087 27.92 3.807 40.137l213.081 377.616c7.424 13.159 20.906 21.014 36.062 21.014s28.638-7.855 36.063-21.013l213.08-377.616c6.893-12.217 8.281-26.846 3.807-40.137zm-397.207 153.557c0-19.735 16.207-35.791 36.128-35.791 19.922 0 36.129 16.056 36.129 35.791s-16.207 35.791-36.129 35.791c-19.921 0-36.128-16.056-36.128-35.791zm176.386 163.791c-19.922 0-36.129-16.056-36.129-35.791s16.207-35.791 36.129-35.791c19.921 0 36.128 16.056 36.128 35.791s-16.207 35.791-36.128 35.791zm60.858-61.519c-10.087-23.528-33.567-40.063-60.858-40.063-36.464 0-66.129 29.514-66.129 65.791s29.665 65.791 66.129 65.791c3.265 0 6.473-.246 9.612-.703l-31.806 56.365c-2.931 5.195-7.924 5.756-9.935 5.756s-7.004-.561-9.936-5.756l-103.778-183.914c1.843.154 3.703.252 5.585.252 36.464 0 66.129-29.514 66.129-65.791s-29.665-65.791-66.129-65.791c-25.855 0-48.277 14.847-59.144 36.415l-23.141-41.01c53.853-27.357 120.818-42.308 190.414-42.308 69.595 0 136.562 14.951 190.414 42.308zm130.029-230.436-17.853 31.639c-58.24-29.844-130.432-46.17-205.163-46.17-74.732 0-146.922 16.327-205.163 46.171l-17.852-31.639c-2.759-4.888-3.292-10.507-1.502-15.823 1.78-5.288 5.58-9.418 10.7-11.629 62.378-26.938 136.314-41.176 213.817-41.176s151.44 14.238 213.817 41.175c5.121 2.211 8.921 6.341 10.701 11.629 1.789 5.316 1.256 10.936-1.502 15.823z"/></g></svg>