<svg id="Capa_1" enable-background="new 0 0 512 512" height="512" viewBox="0 0 512 512" width="512" xmlns="http://www.w3.org/2000/svg"><path d="m376 121.003h-105.1v-77.155l92.302-14.015c8.19-1.243 13.822-8.892 12.578-17.082s-8.894-13.83-17.082-12.578l-105.05 15.95c-7.331 1.113-12.749 7.415-12.749 14.83v90.049h-104.899c-24.813 0-45 20.186-45 45v30c0 8.284 6.716 15 15 15h16.32l28.653 287.485c.765 7.671 7.219 13.513 14.927 13.513h180.1c7.71 0 14.165-5.845 14.927-13.517l28.557-287.48h16.516c8.284 0 15-6.716 15-15v-30c0-24.814-20.187-45-45-45zm-33.054 254.998h-174.032l-5.985-60.049h185.981zm-163.467 105.999-7.575-75.999h168.061l-7.549 75.999zm172.412-196.048h-191.952l-7.47-74.95h206.867zm39.109-104.949c-12.578 0-251.692 0-270 0v-15c0-8.271 6.729-15 15-15h240c8.271 0 15 6.728 15 15z"/></svg>